<?xml version="1.0" standalone="no"?>
<!DOCTYPE svg PUBLIC "-//W3C//DTD SVG 20010904//EN"
 "http://www.w3.org/TR/2001/REC-SVG-20010904/DTD/svg10.dtd">
<svg version="1.0" xmlns="http://www.w3.org/2000/svg"
 width="700.000000pt" height="700.000000pt" viewBox="0 0 700.000000 700.000000"
 preserveAspectRatio="xMidYMid meet">
<metadata>
Created by potrace 1.11, written by Peter Selinger 2001-2013
</metadata>
<g transform="translate(0.000000,700.000000) scale(0.100000,-0.100000)"
fill="#000000" stroke="none">
<path d="M3838 6705 c-2 -2 -32 -6 -66 -10 -35 -3 -73 -8 -84 -10 -12 -3 -44
-7 -71 -10 -28 -3 -53 -8 -56 -9 -3 -2 -23 -7 -44 -10 -139 -22 -494 -120
-602 -166 -11 -4 -47 -19 -80 -31 -92 -36 -309 -145 -420 -213 -240 -144 -462
-321 -669 -531 -410 -415 -589 -813 -590 -1310 0 -256 30 -405 118 -583 84
-172 135 -242 176 -242 22 0 50 21 50 37 0 5 11 33 25 61 14 29 25 54 25 57 0
10 150 313 201 405 250 457 547 825 904 1119 33 26 155 115 221 159 62 41 98
62 194 115 30 16 69 37 85 47 17 9 62 30 100 45 39 16 75 32 80 36 13 10 212
73 295 94 218 56 357 74 550 70 96 -1 189 -6 205 -9 17 -4 55 -11 85 -17 306
-59 525 -254 596 -529 24 -94 25 -99 31 -207 12 -213 -49 -429 -188 -670 -270
-468 -676 -790 -1184 -942 -114 -34 -294 -75 -300 -69 -2 2 21 44 52 93 219
354 357 681 399 945 13 79 7 241 -10 310 -17 67 -62 185 -79 208 -17 22 -47
76 -67 121 -50 108 -133 187 -217 208 -36 9 -46 8 -71 -11 -33 -23 -41 -39
-100 -196 -56 -149 -139 -335 -277 -625 -32 -66 -77 -160 -100 -210 -23 -49
-68 -144 -100 -210 -115 -242 -319 -686 -360 -785 -15 -36 -34 -81 -42 -100
-26 -61 -31 -73 -63 -155 -18 -44 -43 -105 -57 -135 -14 -30 -52 -120 -85
-200 -32 -80 -63 -154 -68 -165 -36 -77 -137 -373 -147 -430 -3 -16 -9 -38
-14 -48 -5 -9 -8 -17 -5 -17 3 0 0 -15 -5 -32 -18 -61 -48 -234 -55 -324 -21
-261 6 -456 87 -617 42 -81 163 -260 209 -307 72 -73 172 -115 287 -119 65 -2
61 -4 117 59 12 13 19 54 32 200 2 25 6 68 9 95 2 28 7 77 10 110 3 33 8 76
10 95 3 19 7 62 10 95 3 33 8 71 10 85 3 14 7 52 10 85 4 33 8 67 10 75 2 8 7
35 10 60 3 25 10 70 15 100 5 30 12 73 15 95 7 52 59 301 80 385 22 90 84 291
95 312 6 10 10 22 10 28 0 6 27 80 60 164 l61 154 187 -1 c252 -2 423 16 642
68 134 31 354 103 448 146 35 16 65 29 67 29 12 0 213 101 284 143 319 188
581 422 774 691 84 116 187 297 234 412 58 140 103 287 122 391 6 32 13 68 16
81 18 95 25 352 12 467 -46 399 -180 693 -431 940 -137 135 -233 201 -436 303
-185 92 -484 187 -713 227 -45 7 -98 16 -117 20 -38 7 -346 15 -352 10z"/>
</g>
</svg>
