<?xml version="1.0" standalone="no"?>
<!DOCTYPE svg PUBLIC "-//W3C//DTD SVG 20010904//EN"
 "http://www.w3.org/TR/2001/REC-SVG-20010904/DTD/svg10.dtd">
<svg version="1.0" xmlns="http://www.w3.org/2000/svg"
 width="700.000000pt" height="700.000000pt" viewBox="0 0 700.000000 700.000000"
 preserveAspectRatio="xMidYMid meet">
<metadata>
Created by potrace 1.11, written by Peter Selinger 2001-2013
</metadata>
<g transform="translate(0.000000,700.000000) scale(0.100000,-0.100000)"
fill="#000000" stroke="none">
<path d="M3817 6704 c-1 -2 -25 -6 -52 -9 -28 -4 -61 -8 -75 -10 -14 -2 -45
-7 -70 -10 -25 -4 -63 -10 -85 -15 -22 -5 -55 -11 -73 -15 -116 -20 -480 -125
-559 -161 -17 -8 -34 -14 -37 -14 -4 0 -50 -20 -103 -45 -52 -25 -97 -45 -100
-45 -2 0 -59 -30 -126 -67 -524 -286 -995 -739 -1205 -1158 -79 -159 -141
-352 -157 -490 -3 -27 -8 -66 -10 -85 -7 -52 -8 -310 -2 -356 4 -21 9 -61 12
-89 5 -47 24 -121 47 -190 27 -77 133 -278 169 -319 62 -71 88 -61 133 49 42
101 207 430 278 554 271 472 612 862 988 1128 232 164 478 289 700 356 327 99
479 119 810 107 222 -8 438 -93 573 -225 104 -103 155 -192 197 -345 18 -68
23 -112 23 -220 1 -138 0 -148 -26 -260 -56 -233 -235 -540 -446 -765 -276
-293 -593 -475 -1011 -583 -133 -35 -180 -43 -180 -33 0 4 32 61 71 127 173
288 289 549 348 779 26 104 31 141 31 255 1 164 -27 262 -132 456 -78 145
-132 210 -204 243 -105 50 -121 33 -238 -249 -98 -238 -167 -389 -351 -775
-86 -181 -125 -263 -242 -515 -118 -253 -246 -542 -295 -665 -24 -62 -174
-418 -194 -462 -8 -17 -14 -34 -14 -37 0 -3 -11 -29 -24 -58 -54 -120 -163
-452 -181 -553 -3 -16 -15 -79 -27 -140 -26 -136 -34 -443 -14 -545 20 -103
45 -180 79 -245 36 -68 119 -194 175 -265 69 -89 180 -146 302 -156 64 -6 68
-5 103 25 42 37 49 63 62 231 3 36 7 79 10 95 2 17 7 64 10 105 3 41 8 86 10
100 2 14 7 54 11 90 3 36 8 76 9 90 2 14 6 52 10 85 3 33 8 67 10 75 2 8 7 35
10 60 3 25 12 83 20 130 8 47 17 103 21 125 3 22 7 42 9 45 2 3 6 25 10 50 4
25 8 47 10 51 2 3 7 21 10 40 19 109 113 437 144 504 6 11 21 52 34 90 14 39
37 100 51 136 l27 66 172 1 c159 1 317 8 377 17 14 2 45 7 70 10 36 5 196 37
245 49 6 2 24 6 40 10 70 18 258 82 357 122 466 189 862 488 1130 854 30 41
63 89 72 105 9 17 29 50 45 75 15 25 47 83 70 130 24 47 47 93 52 103 55 107
140 418 154 562 9 87 6 374 -4 440 -48 312 -137 535 -298 746 -48 64 -189 207
-243 248 -19 14 -37 29 -40 32 -10 12 -146 96 -215 133 -251 134 -662 258
-935 282 -69 6 -328 12 -333 8z"/>
</g>
</svg>
